<?xml version="1.0" encoding="UTF-8"?>
<svg xmlns="http://www.w3.org/2000/svg" xmlns:xlink="http://www.w3.org/1999/xlink" viewBox="0 0 60 60" width="60px" height="60px">
<g id="surface7516966">
<path style=" stroke:none;fill-rule:nonzero;fill:rgb(100%,100%,100%);fill-opacity:1;" d="M 12 8 C 9.789062 8 8 9.789062 8 12 L 8 48 C 8 50.210938 9.789062 52 12 52 L 48 52 C 50.210938 52 52 50.210938 52 48 L 52 12 C 52 9.789062 50.210938 8 48 8 Z M 39.320312 18.496094 C 40.5625 18.496094 41.414062 19.289062 41.414062 20.371094 C 41.414062 21.453125 40.5625 22.246094 39.320312 22.246094 C 38.089844 22.246094 37.230469 21.453125 37.230469 20.371094 C 37.230469 19.289062 38.089844 18.496094 39.320312 18.496094 Z M 23.585938 19.90625 L 27.550781 19.90625 L 34.5625 39.636719 L 30.777344 39.636719 L 29.109375 34.59375 L 21.851562 34.59375 L 20.152344 39.636719 L 16.585938 39.636719 Z M 25.375 23.664062 L 22.671875 31.800781 L 28.289062 31.800781 L 25.609375 23.664062 Z M 37.640625 24.679688 L 41.015625 24.679688 L 41.015625 39.636719 L 37.640625 39.636719 Z M 37.640625 24.679688 "/>
</g>
</svg>
