<?xml version="1.0" encoding="UTF-8"?>
<svg xmlns="http://www.w3.org/2000/svg" xmlns:xlink="http://www.w3.org/1999/xlink" viewBox="0 0 144 144" width="144px" height="144px">
<g id="surface285300550">
<path style=" stroke:none;fill-rule:nonzero;fill:rgb(100%,100%,100%);fill-opacity:1;" d="M 18.839844 93.960938 C 16.4375 92.070312 13.875 90.261719 12.125 87.710938 C 8.441406 83.214844 5.605469 78.007812 3.664062 72.535156 C 2.492188 68.976562 2.09375 65.160156 0.582031 61.738281 C -1 59.257812 0.851562 56.539062 3.574219 55.75 C 4.785156 55.515625 6.914062 54.375 4.34375 55.191406 C 2.039062 56.882812 1.816406 53.65625 4.179688 53.449219 C 5.792969 53.238281 6.386719 51.914062 5.835938 50.726562 C 4.105469 49.597656 10.035156 48.355469 7.050781 46.671875 C 3.941406 43.316406 11.398438 42.671875 9.558594 46.480469 C 9.117188 49.40625 14.769531 45.941406 13.457031 49.324219 C 14.789062 50.949219 18.449219 49.695312 18.355469 51.976562 C 20.296875 52.105469 20.964844 53.742188 22.789062 53.867188 C 24.679688 54.71875 28.101562 55.390625 28.742188 57.523438 C 26.867188 59.007812 22.53125 54.457031 22.320312 58.5625 C 22.886719 64.628906 22.742188 70.882812 24.964844 76.65625 C 26.011719 80.152344 28.558594 82.90625 30.859375 85.632812 C 33.058594 88.300781 36.035156 90.179688 39.070312 91.761719 C 41.734375 93.019531 44.605469 93.847656 47.511719 94.375 C 48.6875 93.472656 50.765625 90.125 52.605469 91.535156 C 52.691406 93.121094 48.960938 94.851562 52.429688 94.675781 C 54.464844 94.0625 55.878906 96.253906 57.558594 94.277344 C 59.101562 96.109375 63.984375 93.109375 62.882812 96.851562 C 61.394531 97.8125 59.226562 97.234375 57.738281 98.554688 C 55.28125 97.324219 53.324219 99.652344 50.605469 99.355469 C 47.585938 99.898438 44.515625 100.117188 41.453125 100.121094 C 36.433594 99.726562 31.300781 99.558594 26.523438 97.808594 C 23.832031 97.027344 21.203125 95.492188 18.839844 93.960938 Z M 23.082031 95.796875 C 25.710938 96.933594 28.28125 98.128906 31.160156 98.492188 C 35.730469 99.128906 40.449219 100.105469 45.035156 99.214844 C 42.960938 98.277344 40.816406 99.578125 38.746094 98.542969 C 36.265625 99.078125 33.601562 98.410156 31.082031 98.078125 C 28.214844 96.800781 25.121094 95.925781 22.4375 94.265625 C 19.082031 93.042969 24.171875 95.839844 25.078125 96.0625 C 27.175781 97.253906 22.769531 95.453125 22.148438 94.960938 C 20.390625 93.976562 20.167969 94.179688 21.976562 95.179688 C 22.339844 95.390625 22.699219 95.617188 23.082031 95.796875 Z M 18.082031 92.261719 C 20.628906 93.203125 18.070312 90.472656 16.902344 90.628906 C 16.386719 89.734375 14.925781 89.164062 15.953125 88.683594 C 14.101562 89.324219 14.015625 86.242188 13.144531 86.683594 C 11.1875 86.0625 12.382812 83.875 10.054688 82.53125 C 9.839844 81.113281 7.738281 79.882812 7.066406 77.746094 C 6.769531 76.648438 4.6875 73.507812 5.96875 76.433594 C 7.054688 79.25 8.96875 81.660156 10.5625 84.070312 C 11.800781 86.359375 13.261719 88.757812 15.515625 90.1875 C 16.273438 90.917969 17.007812 92.035156 18.082031 92.261719 Z M 29.300781 97 C 30.34375 97.65625 35.390625 98.441406 32.230469 97.269531 C 31.699219 97.378906 26.371094 95.761719 29.300781 97 Z M 17.773438 87.640625 C 18.996094 88.578125 22.707031 87.757812 19.648438 87.078125 C 18.253906 86.335938 15.113281 85.828125 17.253906 87.523438 Z M 23.695312 90.777344 C 26.691406 91.621094 21.179688 88.882812 22.960938 90.464844 L 23.351562 90.640625 Z M 28.882812 93.773438 C 31.714844 93.800781 26.320312 93.382812 28.882812 93.773438 Z M 23.722656 89.191406 C 25.894531 89.472656 21.136719 87.714844 23.242188 89.035156 Z M 31.277344 93.835938 C 33.308594 92.621094 32.640625 96.679688 34.722656 94.179688 C 36.777344 92.679688 32.945312 96.03125 35.480469 94.445312 C 37.3125 93.222656 40.015625 95.027344 41.726562 95.617188 C 42.957031 95.554688 44.152344 96.679688 45.410156 95.992188 C 47.835938 95.339844 40.667969 95.023438 42.546875 93.867188 C 40.324219 94.511719 38.6875 93.097656 37.597656 91.675781 C 35.105469 91.097656 32.230469 89.824219 30.988281 87.625 C 30.480469 86.796875 31.71875 87.742188 30.550781 86.386719 C 29.050781 85.054688 28.300781 83.539062 27.292969 81.917969 C 26.089844 81.277344 25.949219 79.386719 25.828125 81.855469 C 25.839844 80.296875 24.378906 79.25 24.019531 79.6875 C 24.015625 78.1875 25.585938 78.9375 24.484375 77.828125 C 24.25 76.273438 23.46875 74.65625 23.234375 72.898438 C 22.871094 72.054688 23.183594 70.242188 21.992188 72.15625 C 21.558594 74.179688 21.847656 69.667969 22.523438 71.15625 C 23.410156 69.640625 22.207031 69.820312 22.15625 70.027344 C 22.734375 68.746094 22.523438 66.933594 22.007812 67.625 C 22.3125 66.269531 22.492188 62.632812 21.550781 63.277344 C 22.121094 61.855469 22.636719 56.78125 20.148438 58.714844 C 19.140625 58.730469 17.394531 59.082031 16.566406 59.492188 C 19.15625 60.921875 16.304688 60.007812 15.253906 59.78125 C 15.113281 61.101562 14.070312 60.53125 12.769531 60.542969 C 14.851562 60.800781 11.753906 62.671875 10.558594 61.945312 C 9 62.6875 11.890625 64.539062 10.585938 65.113281 C 10.746094 65.976562 8.207031 64.800781 8.40625 66.792969 C 6.898438 66.160156 8.199219 69.15625 8.953125 68.140625 C 11.515625 68.835938 10.753906 70.414062 10.820312 71.917969 C 10.402344 72.796875 8.761719 69.859375 10.453125 70 C 9.117188 67.828125 8.976562 69.214844 7.867188 70.222656 C 7.609375 70.296875 10.699219 71.660156 8.761719 72.332031 C 10.46875 72.597656 10.515625 74.089844 10.863281 75.035156 C 11.890625 76.105469 11.679688 73.855469 12.90625 75.140625 C 12.128906 73.996094 8.789062 71.914062 11.476562 72.582031 C 11.464844 71.429688 10.992188 70.5 11.8125 70.523438 C 12.628906 69.046875 10.960938 74.164062 12.796875 72.289062 C 13.308594 72.066406 13.433594 70.808594 14.347656 72.40625 C 15.679688 73.714844 14.828125 74.660156 12.953125 73.464844 C 13.289062 74.601562 15.460938 75.007812 15.054688 76.789062 C 15.484375 78.355469 16.09375 77.773438 16.621094 77.683594 C 17.035156 79.207031 17.269531 78.085938 17.289062 77.363281 C 19.183594 77.769531 18.742188 78.890625 19.335938 79.675781 C 20.640625 80.265625 17.464844 75.679688 19.707031 78.292969 C 22.066406 80.425781 20.59375 81.3125 18.472656 80.972656 C 19.816406 80.863281 20.246094 82.785156 21.921875 82.714844 C 23.449219 83.441406 24.484375 86.234375 21.847656 85.074219 C 20.933594 84.25 17.703125 83.234375 20.34375 84.800781 C 22.78125 85.933594 24.71875 86.605469 27.070312 88.023438 C 28.753906 89.226562 29.484375 90.601562 30.121094 90.871094 C 28.703125 91.546875 25.855469 90.332031 27.972656 89.960938 C 26.652344 89.722656 25.167969 89.050781 26.433594 90.699219 C 27.507812 91.597656 30.238281 91.5 30.730469 91.601562 C 30.316406 92.515625 29.605469 92.589844 30.75 92.660156 C 29.472656 93.34375 31.160156 93.449219 31.277344 93.835938 Z M 28.664062 86.460938 C 27.886719 85.648438 27.6875 84.125 28.527344 85.449219 C 28.960938 85.621094 29.90625 87.9375 28.664062 86.460938 Z M 23.683594 78.253906 C 22.757812 76.179688 24.34375 77.121094 23.890625 78.59375 Z M 15.15625 72.570312 C 14.742188 71.890625 14.058594 69.890625 14.277344 69.28125 C 14.476562 70.273438 16.390625 73.558594 15.214844 70.640625 C 13.921875 68.195312 16.765625 71.433594 17.0625 72.046875 C 17.195312 72.652344 16.261719 71.878906 16.894531 73.300781 C 15.738281 71.683594 16.210938 74.191406 15.15625 72.570312 Z M 10.855469 68.953125 C 9.871094 67.980469 9.160156 67.078125 10.898438 68.347656 C 11.566406 68.375 9.410156 66.304688 11.0625 67.691406 C 12.796875 68.011719 11.917969 70.535156 10.855469 68.953125 Z M 11.441406 67.460938 C 8.589844 64.921875 15.027344 68.785156 11.90625 67.933594 Z M 19.613281 72.210938 C 18.382812 71.46875 19.285156 67 19.707031 70.054688 C 20.90625 69.667969 19.640625 71.632812 20.535156 71.617188 C 20.398438 72.859375 19.996094 73.304688 19.613281 72.210938 Z M 12.003906 66.628906 C 10.171875 64.097656 17.328125 69.183594 13.175781 67.269531 C 12.742188 67.15625 12.21875 67.117188 12.003906 66.628906 Z M 17.824219 69.714844 C 17.648438 67.585938 18.210938 70.066406 17.824219 69.714844 Z M 12.28125 65.664062 C 13.371094 65.429688 16.792969 67.578125 13.648438 66.277344 C 13.300781 65.890625 12.558594 66.0625 12.28125 65.664062 Z M 21.636719 70.324219 C 21.753906 68.144531 22.285156 69.023438 21.640625 70.636719 Z M 13.09375 64.90625 C 13.539062 64.253906 11.914062 61.960938 13.328125 64.082031 C 13.9375 64.570312 15.097656 64.894531 14.074219 65.101562 C 15.679688 66.515625 13.679688 65.484375 13.09375 64.90625 Z M 19.367188 65.078125 C 19.230469 64.238281 19.839844 66.136719 19.367188 65.078125 Z M 20.191406 63.738281 C 19.625 62.738281 20.90625 59.339844 21.050781 61.449219 C 20.453125 63.089844 20.878906 64.011719 21.292969 61.804688 C 22.066406 60.074219 21.128906 65.230469 20.191406 63.738281 Z M 22.539062 88.039062 C 24.160156 88.453125 24.152344 87.785156 22.6875 87.589844 C 21.898438 86.855469 19.410156 86.074219 21.636719 87.496094 C 21.785156 87.871094 22.25 87.859375 22.539062 88.039062 Z M 16.78125 84.214844 C 17.675781 84.882812 20.144531 86.101562 18.054688 84.472656 C 18.757812 83.652344 16.703125 83.214844 17.386719 82.667969 C 15.652344 81.605469 16.015625 81.703125 17.230469 81.734375 C 15.148438 80.800781 17.53125 80.875 17.421875 80.398438 C 16.617188 80.238281 13.429688 78.980469 15.304688 80.5 C 13.398438 79.527344 14.851562 80.863281 14.273438 80.722656 C 12.324219 80.191406 16.011719 82.207031 13.964844 81.703125 C 15.085938 82.589844 16.976562 83.976562 14.4375 82.644531 C 14.101562 83.121094 16.253906 83.851562 16.78125 84.214844 Z M 37.039062 96.09375 C 37.894531 95.265625 37.078125 97.414062 38.457031 95.890625 C 38.472656 94.800781 38.414062 94.15625 36.871094 95.476562 C 36.445312 95.71875 36.253906 96.722656 37.039062 96.09375 Z M 23.035156 87.101562 C 23.988281 87.949219 27.40625 87.722656 24.191406 87.207031 C 23.714844 86.503906 21.167969 86.671875 23.035156 87.101562 Z M 39.480469 96.914062 C 41.101562 95.199219 37.90625 97.015625 39.480469 96.914062 Z M 7.367188 76.578125 C 5.984375 74.605469 6.511719 73.71875 5.175781 72.109375 C 4.921875 70.882812 2.890625 68.085938 4.121094 71.046875 C 5.253906 72.777344 5.589844 75.457031 7.367188 76.578125 Z M 40.773438 96.652344 C 42.21875 95.722656 40.441406 95.863281 40.511719 96.742188 Z M 43.09375 97.285156 C 44.945312 95.945312 41.96875 97.027344 42.703125 97.535156 Z M 12.003906 77.464844 C 13.363281 77.769531 17.433594 80.8125 15.03125 77.675781 C 13.800781 77.3125 14.539062 74.308594 13.285156 74.839844 C 14.128906 76.246094 13.976562 76.84375 12.210938 75.957031 C 9.988281 74.871094 10.960938 76.492188 11.398438 76.941406 C 10.800781 77.074219 12.175781 77.457031 12.003906 77.464844 Z M 5.8125 72.578125 C 6.058594 71.574219 3.574219 67.042969 4.640625 70.3125 C 5.023438 70.996094 4.984375 72.289062 5.8125 72.578125 Z M 33.820312 89.394531 C 33.535156 88.664062 32.695312 89.375 33.820312 89.394531 Z M 48.308594 96.035156 C 49.652344 95.761719 52.714844 96.71875 53.210938 95.679688 C 51.578125 95.640625 47.5625 94.527344 47.371094 95.941406 L 47.730469 96 Z M 6.433594 66.800781 C 7.789062 66.265625 3.964844 65.699219 6.15625 66.699219 Z M 2.199219 62.0625 C 1.953125 60.660156 1.984375 58.195312 4.332031 59.027344 C 1.203125 59.648438 6.496094 62.914062 5.828125 60.335938 C 7.144531 60.398438 8.402344 59.558594 7.714844 60.835938 C 10.304688 60.550781 12.101562 58.300781 14.605469 58.617188 C 16.554688 58.359375 18.6875 58.164062 20.785156 57.378906 C 22.515625 57.253906 24.175781 55.390625 23.230469 54.289062 C 20.878906 54.09375 18.40625 54.386719 15.804688 54.902344 C 12.917969 55.503906 10.296875 56.644531 7.386719 57.132812 C 4.546875 57.511719 7.957031 58.183594 7.144531 58.332031 C 5.660156 58.84375 8.910156 59.191406 6.949219 59.734375 C 5.742188 59.503906 4.480469 59.089844 4.996094 57.8125 C 2.28125 58.167969 -0.109375 59.296875 2.035156 62.0625 Z M 8.75 58.726562 C 9.386719 56.378906 12.164062 60.660156 9.796875 59.039062 C 9.511719 58.828125 9.046875 58.65625 8.75 58.726562 Z M 10.039062 57.609375 C 10.125 56.527344 12.714844 58.183594 10.46875 58 Z M 12.046875 56.691406 C 13.019531 55.523438 17.550781 55.945312 14.234375 56.578125 C 13.347656 55.90625 12.664062 56.972656 12.046875 56.691406 Z M 19.640625 55.769531 C 20.253906 54.160156 22.023438 55.125 19.925781 55.445312 C 19.972656 55.621094 19.863281 56.277344 19.640625 55.769531 Z M 6.097656 64.296875 C 7.933594 63.175781 4.152344 63.320312 6.097656 64.296875 Z M 59.09375 96.058594 C 60.558594 96.0625 63.53125 95.601562 60.34375 95.605469 C 59.84375 95.683594 57.433594 95.667969 59.09375 96.058594 Z M 8.644531 64.015625 C 9.832031 63.933594 10.5 62.707031 8.417969 62.777344 C 5.191406 62.445312 11.269531 63.886719 8.003906 63.472656 C 7.5625 63.761719 8.617188 64.09375 8.644531 64.015625 Z M 6.988281 54.652344 C 9.101562 53.929688 11.992188 53.125 12.992188 55.003906 C 11.976562 53.78125 12.582031 52.578125 13.542969 54.367188 C 14.898438 56.175781 15.578125 53.542969 14.695312 52.933594 C 15.703125 54.1875 16.847656 54.777344 15.371094 53.011719 C 16.976562 51.085938 12.160156 53.265625 11.0625 53.242188 C 10.53125 53.484375 5.621094 54.5 6.988281 54.652344 Z M 8.226562 52.277344 C 9.433594 51.367188 12.398438 52.820312 10.492188 51.371094 C 10.308594 51.210938 6.328125 52.46875 8.226562 52.277344 Z M 12.625 52.460938 C 14.035156 52.496094 12.015625 50.566406 13.699219 51.441406 C 13.421875 50.539062 11.738281 50.371094 10.917969 50.011719 C 10.449219 50.832031 11.863281 52.46875 12.625 52.460938 Z M 10.792969 48.898438 C 13.066406 48.59375 10.214844 47.914062 10.335938 48.871094 Z M 7.4375 46.273438 C 5.835938 44.179688 10.449219 46.621094 8.824219 44.433594 C 7.453125 43.34375 6.136719 45.664062 7.4375 46.273438 Z M 27.996094 57.34375 C 28.730469 56.042969 24.964844 55.589844 27.5 56.882812 C 27.730469 56.960938 27.679688 57.433594 27.996094 57.34375 Z M 27.996094 57.34375 "/>
<path style=" stroke:none;fill-rule:nonzero;fill:rgb(100%,100%,100%);fill-opacity:1;" d="M 62.671875 48.363281 C 62.410156 49.398438 62.246094 51.136719 62.1875 53.578125 C 62.1875 54.058594 61.972656 54.300781 61.539062 54.300781 C 61.105469 54.300781 60.804688 54.089844 60.636719 53.671875 C 60.171875 52.546875 59.734375 51.757812 59.3125 51.308594 C 58.816406 50.785156 58.160156 50.464844 57.34375 50.359375 C 56.460938 50.21875 54.265625 50.148438 50.757812 50.148438 C 49.953125 50.148438 49.429688 50.230469 49.179688 50.402344 C 49.023438 50.511719 48.949219 50.742188 48.949219 51.097656 L 48.949219 61.605469 C 48.949219 61.960938 49.171875 62.128906 49.621094 62.113281 C 50.996094 62.101562 52.988281 62.007812 55.601562 61.835938 C 56.113281 61.773438 56.457031 61.609375 56.632812 61.339844 C 56.8125 61.066406 56.984375 60.367188 57.15625 59.238281 C 57.265625 58.621094 57.628906 58.378906 58.246094 58.519531 C 58.769531 58.625 58.996094 58.867188 58.917969 59.238281 C 58.484375 61.339844 58.34375 64.078125 58.5 67.445312 C 58.515625 67.847656 58.261719 68.0625 57.734375 68.09375 C 57.304688 68.140625 57.03125 67.90625 56.921875 67.398438 C 56.519531 65.464844 55.773438 64.433594 54.683594 64.300781 C 53.59375 64.171875 51.820312 64.105469 49.363281 64.105469 C 49.082031 64.105469 48.945312 64.207031 48.945312 64.402344 L 48.945312 74.839844 C 48.945312 75.613281 49.230469 76.136719 49.804688 76.414062 C 50.25 76.648438 51.21875 76.855469 52.699219 77.042969 C 53.457031 77.121094 53.789062 77.453125 53.695312 78.039062 C 53.605469 78.550781 52.921875 78.75 51.65625 78.640625 C 47.992188 78.347656 44.96875 78.363281 42.589844 78.6875 C 41.925781 78.78125 41.59375 78.511719 41.59375 77.875 C 41.59375 77.472656 41.929688 77.242188 42.589844 77.179688 C 44.105469 77.007812 44.863281 75.679688 44.863281 73.1875 L 44.863281 53.335938 C 44.863281 52.316406 44.683594 51.53125 44.320312 50.980469 C 43.957031 50.433594 43.277344 49.933594 42.292969 49.484375 C 41.671875 49.207031 41.441406 48.828125 41.59375 48.347656 C 41.671875 48.054688 41.796875 47.890625 41.96875 47.863281 C 42.121094 47.816406 42.53125 47.847656 43.195312 47.953125 C 44.171875 48.109375 46.46875 48.1875 50.085938 48.1875 C 54.351562 48.1875 58.039062 48.09375 61.144531 47.90625 C 62.179688 47.84375 62.699219 47.929688 62.699219 48.160156 C 62.695312 48.238281 62.6875 48.300781 62.671875 48.363281 Z M 62.671875 48.363281 "/>
<path style=" stroke:none;fill-rule:nonzero;fill:rgb(100%,100%,100%);fill-opacity:1;" d="M 77.746094 77.835938 C 77.746094 78.453125 77.398438 78.722656 76.699219 78.648438 C 74.566406 78.445312 71.925781 78.476562 68.769531 78.742188 C 68.136719 78.804688 67.746094 78.785156 67.597656 78.695312 C 67.453125 78.601562 67.378906 78.347656 67.378906 77.929688 C 67.378906 77.558594 67.800781 77.246094 68.644531 76.992188 C 69.484375 76.738281 69.90625 75.976562 69.90625 74.710938 L 69.90625 53.722656 C 69.90625 52.472656 69.722656 51.550781 69.359375 50.964844 C 68.996094 50.375 68.359375 49.921875 67.445312 49.597656 C 66.964844 49.425781 66.726562 49.183594 66.726562 48.875 C 66.726562 48.410156 67.074219 48.0625 67.769531 47.832031 C 68.820312 47.492188 69.910156 46.964844 71.039062 46.253906 C 71.96875 45.695312 72.554688 45.421875 72.800781 45.421875 C 73.375 45.421875 73.660156 45.8125 73.660156 46.601562 C 73.660156 46.539062 73.628906 47.3125 73.566406 48.921875 C 73.519531 50.449219 73.503906 51.960938 73.519531 53.441406 L 73.613281 74.152344 C 73.613281 75.09375 73.84375 75.777344 74.308594 76.203125 C 74.773438 76.628906 75.570312 76.910156 76.699219 77.050781 C 77.398438 77.125 77.746094 77.386719 77.746094 77.835938 Z M 77.746094 77.835938 "/>
<path style=" stroke:none;fill-rule:nonzero;fill:rgb(100%,100%,100%);fill-opacity:1;" d="M 98.890625 76.28125 C 98.890625 76.605469 98.300781 77.097656 97.117188 77.753906 C 95.9375 78.410156 94.988281 78.742188 94.277344 78.742188 C 93.675781 78.742188 93.140625 78.445312 92.679688 77.859375 C 92.214844 77.269531 91.890625 76.976562 91.703125 76.976562 C 91.566406 76.976562 90.832031 77.296875 89.503906 77.929688 C 88.171875 78.5625 86.835938 78.878906 85.492188 78.878906 C 84.222656 78.878906 83.164062 78.507812 82.3125 77.765625 C 81.386719 76.945312 80.921875 75.835938 80.921875 74.425781 C 80.921875 71.753906 83.980469 69.835938 90.105469 68.675781 C 91.15625 68.476562 91.6875 68.050781 91.703125 67.402344 L 91.75 65.914062 C 91.84375 63.382812 90.71875 62.113281 88.386719 62.113281 C 87.71875 62.113281 87.089844 62.707031 86.496094 63.898438 C 85.902344 65.089844 85.046875 65.730469 83.933594 65.824219 C 82.664062 65.945312 82.03125 65.410156 82.03125 64.222656 C 82.03125 63.484375 82.972656 62.617188 84.859375 61.625 C 86.839844 60.589844 88.738281 60.070312 90.5625 60.070312 C 93.703125 60.070312 95.257812 61.5625 95.226562 64.546875 L 95.132812 74.101562 C 95.117188 75.109375 95.542969 75.609375 96.40625 75.609375 C 96.578125 75.609375 96.902344 75.570312 97.382812 75.492188 C 97.863281 75.414062 98.140625 75.375 98.21875 75.375 C 98.671875 75.378906 98.890625 75.679688 98.890625 76.28125 Z M 91.753906 70.996094 C 91.765625 70.609375 91.679688 70.351562 91.484375 70.230469 C 91.292969 70.105469 90.988281 70.082031 90.570312 70.160156 C 86.84375 70.828125 84.980469 72.039062 84.980469 73.804688 C 84.980469 75.582031 85.945312 76.46875 87.878906 76.46875 C 88.652344 76.46875 89.449219 76.324219 90.265625 76.027344 C 91.222656 75.691406 91.703125 75.277344 91.703125 74.800781 Z M 91.753906 70.996094 "/>
<path style=" stroke:none;fill-rule:nonzero;fill:rgb(100%,100%,100%);fill-opacity:1;" d="M 116.191406 73.519531 C 116.191406 75.160156 115.5625 76.460938 114.304688 77.425781 C 113.042969 78.394531 111.324219 78.875 109.144531 78.875 C 107.691406 78.875 106.234375 78.71875 104.785156 78.410156 C 103.53125 78.132812 102.804688 77.878906 102.601562 77.644531 C 102.480469 77.429688 102.417969 76.371094 102.417969 74.46875 C 102.417969 73.648438 102.601562 73.222656 102.976562 73.195312 C 103.347656 73.148438 103.660156 73.351562 103.925781 73.796875 C 105.085938 75.820312 106.957031 76.835938 109.539062 76.835938 C 111.71875 76.835938 112.808594 76.078125 112.808594 74.5625 C 112.808594 73.894531 112.5625 73.339844 112.066406 72.890625 C 111.527344 72.382812 110.476562 71.785156 108.914062 71.105469 C 106.660156 70.101562 105.148438 69.21875 104.394531 68.464844 C 103.574219 67.660156 103.164062 66.574219 103.164062 65.21875 C 103.164062 63.546875 103.804688 62.25 105.089844 61.320312 C 106.28125 60.421875 107.875 59.976562 109.867188 59.976562 C 111.117188 59.976562 112.261719 60.078125 113.296875 60.277344 C 114.410156 60.476562 114.988281 60.722656 115.039062 61.015625 C 115.160156 61.882812 115.414062 63.136719 115.804688 64.773438 C 115.847656 64.972656 115.632812 65.136719 115.15625 65.257812 C 114.644531 65.367188 114.304688 65.28125 114.136719 65.003906 C 112.914062 63.007812 111.367188 62.011719 109.496094 62.011719 C 107.378906 62.011719 106.320312 62.695312 106.320312 64.054688 C 106.320312 64.8125 106.605469 65.410156 107.179688 65.863281 C 107.6875 66.25 108.886719 66.851562 110.773438 67.671875 C 112.753906 68.519531 114.097656 69.289062 114.808594 69.964844 C 115.726562 70.855469 116.191406 72.039062 116.191406 73.519531 Z M 116.191406 73.519531 "/>
<path style=" stroke:none;fill-rule:nonzero;fill:rgb(100%,100%,100%);fill-opacity:1;" d="M 143.089844 77.695312 C 143.089844 78.238281 142.726562 78.523438 142.003906 78.554688 C 140.917969 78.570312 139.507812 78.648438 137.757812 78.785156 C 136.890625 78.957031 136.273438 78.847656 135.902344 78.460938 C 133.460938 75.835938 131.386719 73.082031 129.6875 70.207031 C 129.550781 69.960938 129.367188 69.835938 129.152344 69.835938 C 128.890625 69.835938 128.433594 70.066406 127.785156 70.53125 C 127.058594 70.933594 126.695312 71.503906 126.695312 72.246094 C 126.695312 72.769531 126.710938 73.53125 126.742188 74.519531 C 126.769531 75.511719 127.019531 76.15625 127.480469 76.46875 C 127.804688 76.683594 128.554688 76.855469 129.730469 76.976562 C 130.457031 77.070312 130.820312 77.339844 130.820312 77.789062 C 130.820312 78.148438 130.765625 78.367188 130.648438 78.449219 C 130.53125 78.535156 130.226562 78.554688 129.730469 78.507812 C 128.1875 78.367188 125.574219 78.445312 121.894531 78.738281 C 120.964844 78.816406 120.460938 78.699219 120.386719 78.390625 C 120.355469 78.28125 120.34375 78.125 120.34375 77.925781 C 120.34375 77.445312 120.8125 77.082031 121.757812 76.835938 C 122.605469 76.621094 123.03125 75.621094 123.03125 73.84375 L 123.03125 53.578125 C 123.03125 52.3125 122.910156 51.433594 122.660156 50.9375 C 122.320312 50.304688 121.609375 49.808594 120.527344 49.453125 C 120.019531 49.28125 119.761719 49.039062 119.761719 48.730469 C 119.761719 48.285156 120.125 47.9375 120.851562 47.6875 C 122.011719 47.300781 123.117188 46.765625 124.167969 46.089844 C 125.015625 45.53125 125.542969 45.253906 125.746094 45.253906 C 126.378906 45.253906 126.695312 45.65625 126.695312 46.460938 C 126.695312 46.351562 126.6875 47.117188 126.671875 48.757812 C 126.65625 49.882812 126.648438 51.398438 126.648438 53.300781 L 126.691406 67.816406 C 126.691406 68.21875 126.800781 68.421875 127.015625 68.421875 C 127.246094 68.421875 127.605469 68.21875 128.085938 67.816406 C 129.367188 66.8125 130.945312 65.5 132.816406 63.875 C 133.1875 63.488281 133.375 63.179688 133.375 62.949219 C 133.375 62.53125 132.746094 62.238281 131.496094 62.066406 C 130.957031 62.003906 130.699219 61.703125 130.730469 61.164062 C 130.777344 60.625 131.050781 60.390625 131.542969 60.46875 C 132.65625 60.625 134.28125 60.707031 136.414062 60.722656 C 137.898438 60.738281 139.375 60.746094 140.839844 60.746094 C 141.320312 60.761719 141.5625 61.046875 141.5625 61.605469 C 141.5625 62.128906 141.183594 62.417969 140.425781 62.464844 C 139.234375 62.507812 138.113281 62.78125 137.0625 63.277344 C 135.589844 63.941406 134.023438 65.109375 132.355469 66.777344 C 132.230469 66.871094 132.167969 66.988281 132.167969 67.125 C 132.167969 67.339844 132.433594 67.859375 132.957031 68.679688 C 134.890625 71.617188 136.714844 73.835938 138.429688 75.332031 C 139.527344 76.273438 140.554688 76.75 141.511719 76.75 C 142.222656 76.75 142.664062 76.800781 142.835938 76.898438 C 143.007812 76.996094 143.089844 77.265625 143.089844 77.695312 Z M 143.089844 77.695312 "/>
</g>
</svg>
